<svg width="45" height="45" viewBox="0 0 350 217.08556147744036" class="looka-1j8o68f" xmlns="http://www.w3.org/2000/svg">
	<g id="SvgjsG1748" featurekey="rDwwlG-0" transform="matrix(1.4000000000000001,0,0,1.4000000000000001,105.77139999866486,0.23800002336502077)" fill="#ff5a31">
		<polygon xmlns="http://www.w3.org/2000/svg" points="83.479,40.312 49.449,54.127 15.419,40.312 49.449,26.497 ">
		</polygon>
		<path xmlns="http://www.w3.org/2000/svg" d="M49.449,68.983c-9.037,0-16.764-0.645-20.41-1.575c-1.419,2.962-2.279,6.237-2.279,9.733  c0,12.525,10.15,22.688,22.689,22.688c12.52,0,22.688-10.163,22.688-22.688c0-3.496-0.859-6.771-2.278-9.733  C66.214,68.339,58.485,68.983,49.449,68.983z">
		</path>
		<path xmlns="http://www.w3.org/2000/svg" d="M49.449,56.386L26.76,47.18v14.369c0,1.536,10.15,2.767,22.689,2.767s22.688-1.23,22.688-2.767V47.18L49.449,56.386z">
		</path>
		<path xmlns="http://www.w3.org/2000/svg" d="M79.378,55.931V44.257l-1.361,0.547v11.126c-0.918,0.352-1.588,1.36-1.588,2.591c0,1.042,0.475,1.901,1.178,2.376  l-0.729,3.418h3.626l-0.729-3.418c0.703-0.475,1.191-1.334,1.191-2.376C80.966,57.291,80.289,56.282,79.378,55.931z">
		</path>
	</g>
	<g id="SvgjsG1749" featurekey="4AZ1rv-0" transform="matrix(3.8992868947217527,0,0,3.8992868947217527,-5.30303023260133,138.0080205750554)" fill="#ff5a31">
		<path d="M1.36 20 l0 -13.22 l3.36 0 l0 13.22 l-3.36 0 z M7.12 20 l0 -9.34 l2.9 0 l0 1.48 c0.24 -0.56 1.02 -1.76 3.1 -1.76 c1.38 0 2.98 0.56 2.98 3.48 l0 6.14 l-3.12 0 l0 -5.34 c0 -1.1 -0.26 -1.64 -0.9 -1.64 c-1.12 0 -1.68 1.56 -1.84 2.16 l0 4.82 l-3.12 0 z M17.479999999999997 13 l0 -2.34 l1.18 0 l0.18 -2.56 l2.9 0 l0 2.56 l2.56 0 l0 2.34 l-2.56 0 l0 3.96 c0 0.46 0.14 0.74 0.54 0.74 c0.5 0 0.6 -0.56 0.64 -1.12 l2.28 0.8 c-0.4 1.58 -1.02 2.82 -3.3 2.82 c-2.48 0 -3.28 -1.58 -3.28 -3.24 l0 -3.96 l-1.14 0 z M34.96 16.04 l-5.92 0 c0.08 1.34 0.46 1.92 1.76 1.92 c0.8 0 1.28 -0.22 1.42 -0.94 l2.74 0.48 c-0.52 1.74 -1.76 2.78 -4.26 2.78 c-3.12 0 -4.92 -1.62 -4.92 -4.84 c0 -2.6 1.16 -5.06 4.78 -5.06 c2.94 0 4.4 1.62 4.4 4.64 l0 1.02 z M30.439999999999998 12.6 c-0.76 0 -1.2 0.36 -1.36 1.54 l2.6 0 l0 -0.02 c0 -1.1 -0.42 -1.52 -1.24 -1.52 z M36.6 20 l0 -9.34 l2.9 0 l0 1.6 c0.44 -1 1.22 -1.88 2.48 -1.88 c1.48 0 1.94 0.98 1.94 0.98 l-1.86 2.68 s-0.24 -0.66 -0.92 -0.66 c-0.72 0 -1.1 0.94 -1.42 1.92 l0 4.7 l-3.12 0 z M44.84 20 l0 -9.34 l2.9 0 l0 1.48 c0.24 -0.56 1.02 -1.76 3.1 -1.76 c1.38 0 2.98 0.56 2.98 3.48 l0 6.14 l-3.12 0 l0 -5.34 c0 -1.1 -0.26 -1.64 -0.9 -1.64 c-1.12 0 -1.68 1.56 -1.84 2.16 l0 4.82 l-3.12 0 z M56.160000000000004 20 l0 -13.22 l3.36 0 l0 5.1 l5.4 0 l0 -5.1 l3.36 0 l0 13.22 l-3.36 0 l0 -5.22 l-5.4 0 l0 5.22 l-3.36 0 z M79.58 10.66 l0 9.34 l-2.82 0 l-0.08 -1.46 c-0.26 0.56 -1.04 1.74 -3.1 1.74 c-1.38 0 -2.98 -0.56 -2.98 -3.48 l0 -6.14 l3.12 0 l0 5.34 c0 1.1 0.26 1.64 0.9 1.64 c1.08 0 1.66 -1.82 1.84 -2.5 l0 -4.48 l3.12 0 z M81.66000000000001 20 l0 -14.36 l3.12 0 l0 5.64 c0.46 -0.44 1.08 -0.9 2.34 -0.9 c2.82 0 4 2.3 4 4.8 c0 2.82 -1.5 5.1 -4.16 5.1 c-1.44 0 -2.22 -0.64 -2.7 -1.52 l-0.08 1.24 l-2.52 0 z M86.28 17.96 c0.9 0 1.6 -0.86 1.6 -2.7 c0 -1.42 -0.42 -2.56 -1.54 -2.56 s-1.58 1.14 -1.58 2.6 c0 1.28 0.36 2.66 1.52 2.66 z">
		</path>
	</g>
</svg>
